<svg width="233" height="42" viewBox="0 0 233 42" fill="none" xmlns="http://www.w3.org/2000/svg">
<path d="M20.65 29.5389H42.233L30.567 42H9.1L20.65 29.5389ZM56 14.7656H11.6605L0 27.2344H44.3395L56 14.7656ZM25.3969 0H46.9L35.2866 12.4611H13.767L25.3969 0Z" fill="#1A1919"/>
<path d="M218.913 40.1259C216.3 40.1259 213.93 39.5509 211.805 38.4011C209.714 37.2164 208.059 35.6135 206.84 33.5925C205.62 31.5716 205.01 29.3067 205.01 26.7979C205.01 24.2891 205.62 22.0416 206.84 20.0555C208.059 18.0693 209.714 16.5013 211.805 15.3515C213.896 14.1668 216.265 13.5744 218.913 13.5744C221.561 13.5744 223.931 14.1493 226.021 15.2992C228.112 16.4491 229.767 18.0345 230.987 20.0555C232.206 22.0416 232.816 24.2891 232.816 26.7979C232.816 29.3067 232.206 31.5716 230.987 33.5925C229.767 35.6135 228.112 37.2164 226.021 38.4011C223.931 39.5509 221.561 40.1259 218.913 40.1259ZM218.913 32.8608C220.063 32.8608 221.074 32.6169 221.945 32.1291C222.816 31.6064 223.478 30.8921 223.931 29.9861C224.419 29.0453 224.663 27.9826 224.663 26.7979C224.663 25.6132 224.419 24.5852 223.931 23.7141C223.443 22.8082 222.764 22.1113 221.892 21.6235C221.056 21.1008 220.063 20.8395 218.913 20.8395C217.798 20.8395 216.805 21.1008 215.934 21.6235C215.063 22.1113 214.383 22.8082 213.896 23.7141C213.408 24.6201 213.164 25.6654 213.164 26.8501C213.164 28 213.408 29.0453 213.896 29.9861C214.383 30.8921 215.063 31.6064 215.934 32.1291C216.805 32.6169 217.798 32.8608 218.913 32.8608Z" fill="#1A1919"/>
<path d="M193.055 39.5509V14.1493H201.052V39.5509H193.055ZM197.079 10.6475C195.825 10.6475 194.78 10.2293 193.943 9.39307C193.142 8.52195 192.741 7.47662 192.741 6.25707C192.741 5.00266 193.142 3.95733 193.943 3.12106C194.78 2.2848 195.825 1.86666 197.079 1.86666C198.334 1.86666 199.362 2.2848 200.163 3.12106C200.964 3.95733 201.365 5.00266 201.365 6.25707C201.365 7.47662 200.964 8.52195 200.163 9.39307C199.362 10.2293 198.334 10.6475 197.079 10.6475Z" fill="#1A1919"/>
<path d="M175.785 39.5509V3.64373H183.782V39.5509H175.785ZM170.036 20.944V14.1493H189.531V20.944H170.036Z" fill="#1A1919"/>
<path d="M151.704 40.0736C149.37 40.0736 147.279 39.4987 145.432 38.3488C143.621 37.1989 142.175 35.6309 141.094 33.6448C140.049 31.6587 139.526 29.3938 139.526 26.8501C139.526 24.3065 140.049 22.0416 141.094 20.0555C142.175 18.0693 143.621 16.5013 145.432 15.3515C147.279 14.2016 149.37 13.6267 151.704 13.6267C153.412 13.6267 154.945 13.9577 156.304 14.6197C157.698 15.2818 158.83 16.2052 159.701 17.3899C160.572 18.5397 161.06 19.8638 161.165 21.3621V32.3381C161.06 33.8364 160.572 35.178 159.701 36.3627C158.865 37.5125 157.75 38.4185 156.356 39.0805C154.962 39.7426 153.412 40.0736 151.704 40.0736ZM153.325 32.8608C155.032 32.8608 156.408 32.3033 157.454 31.1883C158.499 30.0384 159.022 28.5924 159.022 26.8501C159.022 25.6654 158.778 24.6201 158.29 23.7141C157.837 22.8082 157.175 22.1113 156.304 21.6235C155.468 21.1008 154.492 20.8395 153.377 20.8395C152.262 20.8395 151.269 21.1008 150.398 21.6235C149.562 22.1113 148.882 22.8082 148.359 23.7141C147.872 24.6201 147.628 25.6654 147.628 26.8501C147.628 28 147.872 29.0279 148.359 29.9339C148.847 30.8398 149.527 31.5541 150.398 32.0768C151.269 32.5995 152.245 32.8608 153.325 32.8608ZM158.708 39.5509V32.704L159.91 26.5365L158.708 20.3691V14.1493H166.548V39.5509H158.708Z" fill="#1A1919"/>
<path d="M119.504 39.5509V14.1493H127.5V39.5509H119.504ZM127.5 25.5957L124.155 22.9824C124.817 20.0206 125.932 17.7209 127.5 16.0832C129.068 14.4455 131.246 13.6267 134.034 13.6267C135.253 13.6267 136.316 13.8183 137.222 14.2016C138.163 14.55 138.982 15.1076 139.679 15.8741L134.922 21.8848C134.574 21.5015 134.138 21.2053 133.616 20.9963C133.093 20.7872 132.501 20.6827 131.839 20.6827C130.515 20.6827 129.452 21.1008 128.65 21.9371C127.884 22.7385 127.5 23.958 127.5 25.5957Z" fill="#1A1919"/>
<path d="M102.234 39.5509V3.64373H110.231V39.5509H102.234ZM96.4849 20.944V14.1493H115.98V20.944H96.4849Z" fill="#1A1919"/>
<path d="M79.9681 40.1259C76.9366 40.1259 74.3233 39.638 72.1281 38.6624C69.9677 37.6519 67.9816 36.1362 66.1697 34.1152L71.5009 28.8363C72.6856 30.1952 73.9923 31.258 75.4209 32.0245C76.8843 32.7563 78.5743 33.1221 80.4907 33.1221C82.233 33.1221 83.5745 32.8085 84.5153 32.1813C85.4909 31.5541 85.9787 30.683 85.9787 29.568C85.9787 28.5575 85.6651 27.7387 85.0379 27.1115C84.4107 26.4843 83.5745 25.9442 82.5291 25.4912C81.5187 25.0382 80.3862 24.6027 79.1318 24.1845C77.9123 23.7664 76.6927 23.296 75.4731 22.7733C74.2536 22.2158 73.1211 21.5364 72.0758 20.7349C71.0653 19.8987 70.2465 18.8708 69.6193 17.6512C68.9921 16.3968 68.6785 14.8288 68.6785 12.9472C68.6785 10.6823 69.2186 8.73102 70.2987 7.09333C71.4138 5.45564 72.9469 4.21867 74.8982 3.3824C76.8495 2.51129 79.097 2.07573 81.6406 2.07573C84.2191 2.07573 86.5711 2.52871 88.6966 3.43466C90.857 4.34062 92.634 5.5776 94.0278 7.1456L88.6966 12.4245C87.5816 11.2747 86.4491 10.421 85.2993 9.86347C84.1843 9.30595 82.9124 9.0272 81.4838 9.0272C80.0552 9.0272 78.9227 9.30595 78.0865 9.86347C77.2502 10.3861 76.8321 11.1527 76.8321 12.1632C76.8321 13.104 77.1457 13.8706 77.7729 14.4629C78.4001 15.0204 79.2189 15.5083 80.2294 15.9264C81.2747 16.3445 82.4072 16.7627 83.6267 17.1808C84.8811 17.5989 86.1181 18.0868 87.3377 18.6443C88.5572 19.2018 89.6723 19.9161 90.6827 20.7872C91.7281 21.6235 92.5643 22.7036 93.1915 24.0277C93.8187 25.317 94.1323 26.9198 94.1323 28.8363C94.1323 32.3556 92.8779 35.1257 90.3691 37.1467C87.8603 39.1328 84.3933 40.1259 79.9681 40.1259Z" fill="#1A1919"/>
</svg>
